<svg width="32" height="32" viewBox="0 0 32 32" fill="none" xmlns="http://www.w3.org/2000/svg">
<path d="M32 0H0V32H32V0Z" fill="#5000FF"/>
<path d="M14.5554 26.4994L14.5679 26.5H14.5804C15.2485 26.5 16.0191 26.3738 16.8844 26.1354C17.751 25.9178 18.6864 25.6043 19.6895 25.1975C20.693 24.7906 21.7368 24.3096 22.8207 23.7553L22.824 23.7536C23.9288 23.1781 25.033 22.5497 26.1365 21.8685L26.156 21.8564L26.1744 21.8426C26.3844 21.6846 26.5 21.4521 26.5 21.1899C26.5 20.9692 26.3979 20.7978 26.2908 20.6799C26.1747 20.5288 25.991 20.4051 25.7476 20.4051C25.5848 20.4051 25.4255 20.4565 25.2934 20.5634C24.3051 21.1613 23.2963 21.7287 22.2672 22.2656L22.2672 22.2655L22.2635 22.2675C21.2443 22.81 20.2692 23.2781 19.3381 23.6725C18.4058 24.0674 17.5519 24.3766 16.7754 24.6021C15.9985 24.8277 15.3869 24.9304 14.9274 24.9304C14.2175 24.9304 13.7782 24.7798 13.5215 24.5646C13.2817 24.3636 13.1246 24.041 13.1246 23.5C13.1246 22.9312 13.2712 22.282 13.5885 21.546C13.9135 20.7921 14.3213 20.0243 14.8134 19.2426C15.3322 18.4307 15.8822 17.629 16.4636 16.8374C17.0733 16.0359 17.6311 15.2862 18.137 14.5885C18.668 13.8852 19.108 13.2505 19.4546 12.6855L19.4546 12.6855L19.4589 12.6784C19.8012 12.0989 20.0331 11.5555 20.0331 11.0949C20.0331 10.679 19.9062 10.2897 19.5934 10.0042C19.3489 9.76219 19.0584 9.59384 18.7278 9.50733C18.4452 9.41427 18.1595 9.35494 17.8713 9.33085C17.6159 9.3095 17.4097 9.29747 17.2618 9.29747C17.1142 9.29747 16.9024 9.28827 16.6212 9.26836C16.3399 9.22775 16.0375 9.17709 15.7139 9.11621C15.3966 9.05653 15.0673 8.97664 14.726 8.87608C14.5934 8.8344 14.47 8.78972 14.3553 8.74233C14.5973 8.1719 14.7334 7.64456 14.7334 7.17089C14.7334 7.07444 14.72 6.9598 14.7011 6.84073C14.6942 6.64938 14.6441 6.46667 14.561 6.29605C14.4554 6.05676 14.2829 5.86897 14.0616 5.7368C13.8 5.55835 13.4798 5.5 13.1609 5.5C13.0702 5.5 12.9449 5.51863 12.8261 5.53849L12.9032 5.99966L12.8261 5.53849C12.5992 5.57642 12.3999 5.68302 12.2289 5.82174C12.0256 5.96465 11.8692 6.16749 11.7456 6.39068L11.7348 6.41009L11.7258 6.43038C11.6026 6.70853 11.5568 7.03919 11.5568 7.39241C11.5568 7.77701 11.6338 8.15614 11.7816 8.52696L11.7893 8.54624L11.7986 8.56481C11.9248 8.81818 12.0961 9.04619 12.3057 9.25035C11.4148 10.7031 10.4413 12.1359 9.38503 13.5487L9.38502 13.5487L9.38222 13.5525C8.35231 14.9576 7.14557 16.2825 5.76049 17.5268L5.75025 17.536L5.74053 17.5457C5.59012 17.6966 5.5 17.8951 5.5 18.1203C5.5 18.2919 5.54305 18.5125 5.71687 18.6869C5.89097 18.8615 6.1118 18.9051 6.28391 18.9051C6.44183 18.9051 6.64879 18.866 6.81571 18.7061C8.15928 17.486 9.39603 16.1487 10.5259 14.6947C11.6555 13.2675 12.6922 11.7483 13.6361 10.1373C13.8876 10.2508 14.1546 10.3497 14.4363 10.4345L14.4502 10.4387L14.4643 10.442C14.9151 10.5497 15.3366 10.6365 15.7283 10.702C16.1142 10.7665 16.4444 10.811 16.7154 10.8337L16.7154 10.8337L16.7186 10.834C16.9791 10.8541 17.1634 10.8671 17.2303 10.8671C17.3078 10.8671 17.4335 10.8753 17.6165 10.8957L17.6441 10.8987H17.6719C17.8312 10.8987 17.9773 10.9226 18.1127 10.9679L18.1373 10.9761L18.1625 10.9817C18.2877 11.0096 18.369 11.053 18.4238 11.0988L18.4576 11.1271L18.4653 11.1315C18.4643 11.1835 18.4487 11.2638 18.3916 11.3782C18.3169 11.5281 18.2326 11.679 18.1384 11.831C17.6816 12.4763 17.0893 13.2789 16.3603 14.24C15.6165 15.1995 14.8945 16.2115 14.1943 17.2758C13.4897 18.3468 12.8795 19.4095 12.3646 20.4642C11.84 21.5386 11.5568 22.5333 11.5568 23.4367C11.5568 24.2757 11.7987 25.0041 12.3172 25.5763C12.854 26.1686 13.6288 26.4529 14.5554 26.4994ZM13.1616 7.27764C13.1602 7.29225 13.1584 7.30785 13.1562 7.32447C13.1562 7.30907 13.1566 7.2965 13.1572 7.2865L13.1616 7.27764ZM13.1352 7.33064L13.136 7.32911C13.1357 7.32962 13.1354 7.33013 13.1352 7.33064Z" fill="white" stroke="white"/>
</svg>
