<svg width="32" height="32" viewBox="0 0 32 32" fill="none" xmlns="http://www.w3.org/2000/svg">
<circle cx="16" cy="16" r="16" fill="#5000FF"/>
<path d="M13.8799 7.79584L13.8798 7.79572C13.8799 7.79584 13.88 7.79589 13.8799 7.79585L13.8799 7.79584ZM13.8799 7.79584C13.8798 7.79573 13.8789 7.79476 13.8767 7.79301C13.8744 7.79112 13.87 7.78794 13.8628 7.78385L13.8354 7.7681L13.8126 7.75177M13.8799 7.79584L13.5916 7.72858C13.5953 7.72809 13.5988 7.72764 13.6021 7.72723C13.6106 7.72616 13.6167 7.72548 13.6209 7.72506M13.8126 7.75177C13.8134 7.75217 13.8138 7.75239 13.8138 7.75239C13.8138 7.7524 13.8123 7.75158 13.8096 7.74966L13.8126 7.75177ZM13.8126 7.75177C13.8094 7.75026 13.7999 7.74621 13.7817 7.74164C13.7498 7.73365 13.698 7.7258 13.6209 7.72506M13.6209 7.72506C13.6231 7.72484 13.6247 7.7247 13.6258 7.7246C13.6267 7.72452 13.6272 7.7245 13.6271 7.7245C13.627 7.72452 13.6203 7.72501 13.609 7.72501C13.613 7.72501 13.617 7.72503 13.6209 7.72506ZM14.8482 25.6242L14.8638 25.625H14.8795C15.4981 25.625 16.2037 25.5084 16.9868 25.2929C17.7714 25.0957 18.6158 24.8125 19.5188 24.4463C20.4223 24.0799 21.3612 23.6472 22.3354 23.149L22.3354 23.149L22.3395 23.1469C23.3323 22.6298 24.3243 22.0652 25.3154 21.4533L25.3399 21.4382L25.3628 21.421C25.5954 21.246 25.725 20.9853 25.725 20.6949C25.725 20.4433 25.6101 20.2514 25.4964 20.1244C25.3652 19.9569 25.1546 19.815 24.8741 19.815C24.694 19.815 24.5153 19.8712 24.366 19.9883C23.4877 20.5193 22.5914 21.0233 21.677 21.5003L21.677 21.5003L21.6724 21.5027C20.7643 21.9861 19.8963 22.4028 19.0684 22.7535C18.239 23.1047 17.4814 23.379 16.7945 23.5784C16.107 23.7781 15.5777 23.8652 15.1901 23.8652C14.5752 23.8652 14.2304 23.734 14.0458 23.5793C13.8823 23.4423 13.754 23.2103 13.754 22.7625C13.754 22.2836 13.8776 21.7268 14.1547 21.084C14.4415 20.4187 14.8019 19.7397 15.2379 19.0471C15.6998 18.3244 16.1895 17.6105 16.7071 16.9057C17.2527 16.1884 17.7522 15.5173 18.2053 14.8923C18.6824 14.2603 19.0794 13.6879 19.3932 13.1763L19.3932 13.1764L19.3985 13.1674C19.707 12.6453 19.9372 12.1234 19.9372 11.66C19.9372 11.2521 19.8119 10.8519 19.4885 10.5551C19.25 10.3199 18.9653 10.1544 18.6417 10.0688C18.3779 9.98232 18.1103 9.92686 17.8396 9.90424C17.61 9.88504 17.4194 9.87374 17.2793 9.87374C17.1544 9.87374 16.9717 9.86596 16.725 9.84859C16.4779 9.81281 16.2118 9.7682 15.9267 9.71457C15.6496 9.66244 15.3612 9.59254 15.0615 9.50429C15.0094 9.4879 14.9592 9.47102 14.9106 9.45369C15.0906 8.992 15.1939 8.55365 15.1939 8.14795C15.1939 8.05108 15.1811 7.94158 15.1644 7.83502C15.1559 7.64172 15.1048 7.4588 15.0232 7.29023C14.9136 7.04367 14.7355 6.8502 14.5107 6.7148C14.2367 6.52962 13.9115 6.47501 13.609 6.47501C13.5106 6.47501 13.3838 6.49455 13.2801 6.51188L13.2801 6.51189C13.0419 6.55171 12.8375 6.66216 12.6678 6.7988C12.4591 6.94698 12.3046 7.15137 12.187 7.36367L12.1736 7.38793L12.1623 7.4133C12.0382 7.69358 11.9958 8.01703 11.9958 8.34621C11.9958 8.71462 12.0697 9.07619 12.2097 9.42738L12.2193 9.45148L12.2309 9.47469C12.3327 9.67904 12.464 9.86506 12.62 10.0338C11.8453 11.289 11.0011 12.5277 10.0875 13.7498L10.0874 13.7498L10.0839 13.7546C9.16985 15.0017 8.09817 16.1784 6.86703 17.2844L6.85423 17.2959L6.84207 17.3081C6.67647 17.4743 6.57501 17.6962 6.57501 17.9476C6.57501 18.1284 6.62043 18.379 6.8209 18.5801C7.02173 18.7815 7.27257 18.8275 7.45411 18.8275C7.62187 18.8275 7.8577 18.7861 8.05113 18.6018C9.26048 17.5034 10.3736 16.2997 11.3904 14.9912C12.3747 13.7476 13.2804 12.4264 14.1076 11.0282C14.2966 11.1069 14.494 11.177 14.6994 11.2388L14.7167 11.2441L14.7343 11.2483C15.1411 11.3454 15.5223 11.424 15.8775 11.4834C16.2256 11.5416 16.5263 11.5822 16.7755 11.6031L16.7755 11.6031L16.7795 11.6034C17.0081 11.621 17.1825 11.6336 17.2511 11.6336C17.3106 11.6336 17.4155 11.64 17.5771 11.658L17.6117 11.6619H17.6464C17.7709 11.6619 17.8825 11.6804 17.9846 11.7146L18.0153 11.7248L18.0468 11.7319C18.097 11.743 18.1333 11.7568 18.1598 11.7702C18.153 11.7884 18.1439 11.8097 18.1317 11.8343C18.0681 11.9618 17.9963 12.0906 17.9159 12.2206C17.5091 12.7951 16.9815 13.51 16.3317 14.3668C15.6632 15.2291 15.0145 16.1384 14.3856 17.0943C13.7512 18.0585 13.2013 19.0162 12.7368 19.9676C12.2602 20.9436 11.9958 21.8612 11.9958 22.7059C11.9958 23.4924 12.2236 24.1895 12.7224 24.74C13.2441 25.3156 13.9886 25.5811 14.8482 25.6242Z" fill="white" stroke="white" stroke-width="1.25"/>
</svg>
